<svg xmlns="http://www.w3.org/2000/svg" viewBox="0 0 192 158">
  <defs>
    <linearGradient id="towerFinal" x1="34" y1="18" x2="157" y2="146" gradientUnits="userSpaceOnUse">
      <stop offset="0" stop-color="#fff6c9"/>
      <stop offset=".45" stop-color="#e9bd5b"/>
      <stop offset="1" stop-color="#b66a37"/>
    </linearGradient>
    <linearGradient id="glassFinal" x1="15" y1="48" x2="174" y2="128" gradientUnits="userSpaceOnUse">
      <stop offset="0" stop-color="#9ed6cd"/>
      <stop offset="1" stop-color="#fff1a6"/>
    </linearGradient>
  </defs>
  <ellipse cx="98" cy="144" rx="91" ry="14" fill="#466062" opacity=".22"/>
  <path d="M14 131c9-19 24-28 41-26 14 2 22 12 31 26z" fill="#d6a35c" opacity=".45"/>
  <path d="M106 131c9-19 23-28 40-26 16 2 26 13 32 26z" fill="#d6a35c" opacity=".45"/>
  <rect x="10" y="65" width="48" height="70" rx="11" fill="url(#glassFinal)" stroke="#b9833c" stroke-width="2"/>
  <rect x="134" y="65" width="48" height="70" rx="11" fill="url(#glassFinal)" stroke="#b9833c" stroke-width="2"/>
  <rect x="36" y="25" width="120" height="110" rx="14" fill="url(#towerFinal)" stroke="#a96b34" stroke-width="3"/>
  <path d="M49 19h94l14 11H35z" fill="#ffdc67" stroke="#a96b34" stroke-width="2"/>
  <path d="M64 10h64l13 11H51z" fill="#fff0a0" stroke="#b47b31" stroke-width="2"/>
  <g fill="#fff7bf" stroke="#c47e2d" stroke-width="1">
    <rect x="27" y="80" width="12" height="10" rx="3"/>
    <rect x="27" y="101" width="12" height="10" rx="3"/>
    <rect x="153" y="80" width="12" height="10" rx="3"/>
    <rect x="153" y="101" width="12" height="10" rx="3"/>
    <rect x="54" y="46" width="13" height="10" rx="3"/>
    <rect x="79" y="46" width="13" height="10" rx="3"/>
    <rect x="104" y="46" width="13" height="10" rx="3"/>
    <rect x="129" y="46" width="13" height="10" rx="3"/>
    <rect x="54" y="66" width="13" height="10" rx="3"/>
    <rect x="79" y="66" width="13" height="10" rx="3"/>
    <rect x="104" y="66" width="13" height="10" rx="3"/>
    <rect x="129" y="66" width="13" height="10" rx="3"/>
    <rect x="54" y="86" width="13" height="10" rx="3"/>
    <rect x="79" y="86" width="13" height="10" rx="3"/>
    <rect x="104" y="86" width="13" height="10" rx="3"/>
    <rect x="129" y="86" width="13" height="10" rx="3"/>
  </g>
  <g fill="#fff7e6" stroke="#a96b34" stroke-width="1.5">
    <rect x="57" y="115" width="11" height="20" rx="2"/>
    <rect x="124" y="115" width="11" height="20" rx="2"/>
  </g>
  <path d="M76 135v-21c0-10 40-10 40 0v21z" fill="#b83236"/>
  <path d="M76 114c7 5 33 5 40 0" fill="none" stroke="#ffcf70" stroke-width="3"/>
  <rect x="16" y="3" width="160" height="31" rx="14" fill="#fffbe7" stroke="#7a532f" stroke-width="3"/>
  <circle cx="35" cy="19" r="5" fill="#f1c54f"/>
  <circle cx="157" cy="19" r="5" fill="#66b95d"/>
  <text x="96" y="24" text-anchor="middle" font-family="Arial, sans-serif" font-size="14" font-weight="900" fill="#315f38">WEMADE PLAY</text>
  <line x1="96" y1="3" x2="96" y2="-18" stroke="#8a6a2e" stroke-width="2"/>
  <path d="M96-18l24 8-24 8z" fill="#f1c54f"/>
  <path d="M41 39c4 8 16 8 21 0" fill="none" stroke="#fff3a0" stroke-width="3" opacity=".8"/>
  <path d="M130 39c4 8 16 8 21 0" fill="none" stroke="#fff3a0" stroke-width="3" opacity=".8"/>
</svg>
