<svg xmlns="http://www.w3.org/2000/svg" viewBox="0 0 192 158">
  <ellipse cx="99" cy="142" rx="82" ry="13" fill="#466062" opacity=".18"/>
  <ellipse cx="24" cy="136" rx="12" ry="10" fill="#d2a55a" opacity=".42"/>
  <ellipse cx="168" cy="136" rx="12" ry="10" fill="#d2a55a" opacity=".42"/>
  <rect x="32" y="42" width="128" height="94" rx="12" fill="#e7d9bd" stroke="#c99e4a" stroke-width="3"/>
  <rect x="26" y="33" width="140" height="10" rx="5" fill="#e1b04a"/>
  <g fill="#ffd678">
    <rect x="49" y="58" width="15" height="11" rx="3"/>
    <rect x="77" y="58" width="15" height="11" rx="3"/>
    <rect x="105" y="58" width="15" height="11" rx="3"/>
    <rect x="133" y="58" width="15" height="11" rx="3"/>
    <rect x="49" y="79" width="15" height="11" rx="3"/>
    <rect x="77" y="79" width="15" height="11" rx="3"/>
    <rect x="105" y="79" width="15" height="11" rx="3"/>
    <rect x="133" y="79" width="15" height="11" rx="3"/>
    <rect x="49" y="100" width="15" height="11" rx="3"/>
    <rect x="77" y="100" width="15" height="11" rx="3"/>
    <rect x="105" y="100" width="15" height="11" rx="3"/>
    <rect x="133" y="100" width="15" height="11" rx="3"/>
  </g>
  <g fill="#f6f0e0" stroke="#c99e4a" stroke-width="1.5">
    <rect x="63" y="116" width="9" height="20" rx="2"/>
    <rect x="120" y="116" width="9" height="20" rx="2"/>
  </g>
  <path d="M80 136v-16c0-8 32-8 32 0v16z" fill="#a3262a"/>
  <rect x="18" y="6" width="156" height="32" rx="14" fill="#fff9da" stroke="#7a532f" stroke-width="3"/>
  <circle cx="36" cy="22" r="5" fill="#f1c54f"/>
  <circle cx="156" cy="22" r="5" fill="#66b95d"/>
  <text x="96" y="27" text-anchor="middle" font-family="Arial, sans-serif" font-size="15" font-weight="900" fill="#315f38">WEMADE PLAY</text>
  <line x1="96" y1="6" x2="96" y2="-20" stroke="#8a6a2e" stroke-width="2"/>
  <path d="M96 -20l24 8-24 8z" fill="#f1c54f"/>
</svg>
